<svg width="25" height="25" viewBox="0 0 25 25" fill="none" xmlns="http://www.w3.org/2000/svg">
<g id="ph:phone-light">
<path id="Vector" d="M23.0676 16.0442L18.4544 13.9768C18.2453 13.8873 18.0173 13.8513 17.7908 13.8721C17.5644 13.8929 17.3467 13.9698 17.1575 14.096C17.1383 14.1083 17.12 14.122 17.1028 14.137L14.6917 16.1878C14.6666 16.2014 14.6388 16.209 14.6103 16.2101C14.5818 16.2111 14.5535 16.2055 14.5276 16.1936C12.9778 15.4456 11.3723 13.8499 10.6213 12.3216C10.6088 12.296 10.6023 12.268 10.6023 12.2395C10.6023 12.2111 10.6088 12.183 10.6213 12.1575L12.679 9.71609C12.6937 9.69803 12.7074 9.67911 12.72 9.65945C12.8444 9.46951 12.9195 9.25158 12.9386 9.02534C12.9577 8.79909 12.9202 8.57165 12.8294 8.36355L10.7766 3.75808C10.66 3.48622 10.4584 3.25949 10.2021 3.11193C9.9457 2.96438 9.64838 2.90395 9.35475 2.93972C8.0786 3.10749 6.9072 3.73419 6.05946 4.70271C5.21171 5.67123 4.74563 6.91529 4.7483 8.20242C4.7483 15.8489 10.969 22.0696 18.6155 22.0696C19.9026 22.0721 21.1465 21.6059 22.115 20.7582C23.0835 19.9105 23.7102 18.7392 23.8782 17.4632C23.9139 17.1709 23.8543 16.8749 23.7082 16.6193C23.5622 16.3636 23.3375 16.1619 23.0676 16.0442ZM18.6155 20.8977C11.6155 20.8977 5.92018 15.2024 5.92018 8.20242C5.91691 7.2004 6.27858 6.23146 6.9376 5.47665C7.59663 4.72183 8.50793 4.23278 9.50123 4.10086H9.52369C9.56305 4.10159 9.60126 4.1142 9.63332 4.13703C9.66539 4.15986 9.68981 4.19184 9.70338 4.22879L11.7639 8.82937C11.7757 8.85495 11.7818 8.88277 11.7818 8.91091C11.7818 8.93906 11.7757 8.96688 11.7639 8.99246L9.7024 11.4397C9.68702 11.4572 9.67299 11.4758 9.66041 11.4954C9.53141 11.6923 9.45545 11.9192 9.43988 12.1541C9.42431 12.389 9.46966 12.624 9.57154 12.8362C10.4378 14.6096 12.2249 16.3831 14.0178 17.2493C14.2313 17.3506 14.4674 17.3949 14.7031 17.3778C14.9387 17.3606 15.166 17.2827 15.3626 17.1516C15.3811 17.1389 15.3997 17.1253 15.4172 17.1106L17.8274 15.0598C17.8512 15.0471 17.8775 15.0396 17.9045 15.0379C17.9314 15.0362 17.9584 15.0403 17.9837 15.0501L22.5979 17.1175C22.6356 17.1335 22.6673 17.161 22.6885 17.1961C22.7097 17.2311 22.7194 17.2719 22.7161 17.3128C22.5848 18.3065 22.0963 19.2185 21.3416 19.8783C20.5869 20.538 19.6179 20.9004 18.6155 20.8977Z" fill="#012C6D"/>
</g>
</svg>
